<svg width="34" height="18" viewBox="0 0 34 18" fill="none" xmlns="http://www.w3.org/2000/svg" image-rendering="optimizeQuality"> 

<g id="Monogram black"> 

<path id="Monogram black_2" d="M9.00842 0.917445V17.0548C4.54203 17.0478 0.923077 13.4363 0.923077 8.9861C0.923077 4.52893 4.54203 0.917445 9.00842 0.917445ZM25.0124 13.6651C22.4145 13.6651 20.7475 11.3984 20.7475 8.95837C20.7475 6.51837 22.4215 4.33484 24.9916 4.33484C26.7698 4.33484 28.2077 5.47166 28.8328 7.09371H33.0769C32.9241 6.17177 32.5212 5.27757 32.0072 4.5012C30.4165 2.10279 27.8881 0.778809 25.0124 0.778809C21.2962 0.778809 18.1704 3.08018 17.0938 6.40746V0.917445C12.6274 0.917445 9.00842 4.52893 9.00842 8.9861C9.00842 13.4433 12.6274 17.0548 17.0938 17.0548V11.5439C18.1774 14.8851 21.3379 17.2211 25.0541 17.2211C28.8953 17.2211 32.1531 14.7395 33.0769 10.9894H28.8328C28.1243 12.5491 26.7906 13.6651 25.0124 13.6651Z" fill="#4E3A76" /> 

</g> 

</svg> 